<svg version="1.2" xmlns="http://www.w3.org/2000/svg" viewBox="0 0 1599 835" width="1599" height="835"><style>.a{fill:#2e5bbf}.b{fill:#fff}.c{fill:#2a53ad}.d{fill:#ffc3a8}.e{fill:#99e7ff}.f{fill:#bf3426}.g{fill:#ebebeb}.h{fill:#ffa995}.i{fill:#fe9126}.j{fill:#ffd24c}.k{fill:#203f85}.l{fill:#99e6fd}.m{fill:#21428a}.n{fill:#00bffb}.o{fill:#59d9fd}.p{fill:#0a81d1}.q{fill:#58d7fc}.r{fill:#ff8570}.s{fill:#fdc242}.t{fill:#a66e6e}.u{fill:#002169}.v{fill:#fffbff}.w{fill:#ffe8e8}.x{fill:#fd7d42}.y{fill:#ff9566}.z{fill:#7964ff}.A{fill:none;stroke:#ff9566;stroke-linecap:round;stroke-linejoin:round;stroke-width:2}.B{fill:none;stroke:#db6856;stroke-linecap:round;stroke-linejoin:round;stroke-width:4}.C{fill:#9e9e9e}</style><path class="a" d="m1056.3 404.7c-20.7-12.5-33.7-37-32.3-61.1l6.3 0.3c-1.3 21.9 10.5 44.1 29.3 55.4z"/><path class="b" d="m202 181l523 2 27 355-530-7z"/><path class="c" d="m977 767.6l-29.4-0.1c1.9 12.8 9.9 60.9 11.3 70.5h29.4c-1.4-9.7-9.4-57.8-11.3-70.4z"/><path fill-rule="evenodd" class="d" d="m1117 417.5c-7.5-2.7-14.7-6-21.6-9.8-11.8-6.4-22.5-14.5-31.5-24.3 4.4 0.6 8.9-0.1 12.6-2.3 4.8-2.9 7.8-8 9.1-13.4 1.3-5.4 1.1-11 0.5-16.5-1-9.9-3.2-19.9-8.1-28.6-5-8.7-13-16-22.7-18.4-8.4-2-16.8 1.6-22.7 7.4-1.5-10.1-2.2-20.4-2.5-30.5-0.4-18.3 0.5-36.6 1-55 0.3-10.6 0.4-21.2 0-31.8q4.7-0.3 9.3-1.1c22.3-3.6 42.6-14.6 60.4-28.9 2.8 3.5 6.1 6.5 9.6 9.1 15.1 11 34.6 14.6 53.2 13.6 26.7-1.3 52.7-11.5 73.5-28.3-0.6 14.3 1.9 28.7 8.3 41.6 3.3 6.6 7.7 12.7 12.9 17.9q4 4 8.5 7.2c4.1 2.9 7.4 5.2 8.7 10.1 1.5 5.6 3.4 10.9 5.8 16.1 2.5 5.2 5.4 10.2 8.9 14.9l0.8 0.2c-2.2 7.5-3.4 15.5-3.9 23.3-0.8 13.4 0.2 27.2 5.9 39.4 4.8 10 13.3 18.7 23.7 22.4-6.9 10.7-14.8 20.7-23.7 29.8-13.8 14.2-29.8 26-47.7 34.2q-1.6 0.8-3.3 1.5-5.5 2.3-11.2 4.2c-21.5 7.1-44.5 8.8-67.1 6.6q-8.5-0.9-16.8-2.5c-10.1-1.8-20.2-4.5-29.9-8.1zm159.6-60.6c6.6-7.9 10.4-18.5 8.5-28.7-1.9-10.1-9.9-20.7-21.2-21.9-9.9-1.1-19.9 3-27.6 9.4-7.6 6.5-13.1 15.1-17.5 24.1-2.4 5-4.5 10.2-5.2 15.7-0.6 5.4 0.5 11.3 4 15.6 3.8 4.8 10.1 7.1 16.1 7.2 6.1 0.1 12.1-1.7 17.7-4.1 9.5-3.9 18.7-9.3 25.2-17.3zm-84 2.4c10-7.9 15.2-21.5 13-34.1-20.4 3.7-70.5 10.8-70.5 10.8 0.4 3.5 3.1 10.3 4.9 13.3 3.8 6.4 9.5 11.7 16.4 14.7 11.7 5.1 26.2 3.2 36.2-4.7zm-68.4-86c0-8-6.5-14.5-14.5-14.5-7.9 0-14.4 6.5-14.4 14.5 0 7.9 6.5 14.4 14.4 14.4 8 0 14.5-6.5 14.5-14.4z"/><path class="e" d="m736.4 394.4l-220-0.1-19.2-209-26.3-0.3 21.3 232.8 245.3 0.5z"/><path class="f" d="m1354.9 684.2c-4.9-4.4-7.8-10.8-7.2-17.8q0.2-3.2 0.6-6.4c13.5 9.6 27.2 19.1 42.1 26.1-2.9 1.6-5.9 2.9-9 3.8-3.7 1-7.5 1.4-11.3 1-5.8-0.5-11.2-2.9-15.2-6.7z"/><path class="g" d="m993.8 732.5v12.9l-239 0.4-0.1-34.3q0.5 0 0.9 0c18.3-20.4 48.2-29.3 74.8-23q14.8 6.7 29.9 12.5c23.2 9 46.9 16.5 70.8 23.3q9.3 2.7 18.7 5.2c13.8 3.7 28.3 7.2 42.1 3.6q1-0.3 1.9-0.6z"/><path class="h" d="m1285.1 328.2c1.9 10.2-1.9 20.8-8.5 28.7-6.5 8-15.7 13.4-25.2 17.3-5.6 2.4-11.6 4.2-17.7 4.1-6-0.1-12.3-2.4-16.1-7.2-3.5-4.3-4.6-10.2-4-15.6 0.7-5.5 2.8-10.7 5.2-15.7 4.4-9 9.9-17.6 17.5-24.1 7.7-6.4 17.7-10.5 27.6-9.4 11.3 1.2 19.3 11.8 21.2 21.9z"/><path class="d" d="m753.4 671.4q-1 0.4-2 0.8c-4.1 1.2-9.1 1-12.5-1.4-1-0.7-1.9-1.7-2.6-2.8-0.7-1.3-1.1-2.8-1.1-4.3-2.5 3.1-7.5 4.1-11.2 2.3-4.5-2.1-6.9-7.2-7-12.1 0-5 1.9-9.7 4.3-14 8.7-15.5 24.4-26.8 41.8-30.2 10.9-2.1 22.2-1.2 32.6 2.5 11 3.9 21.9 7.7 33.2 10.1 6.5 1.3 14 0.6 20.7 0.9q10.6 0.4 21.2 0.9c28.1 1.4 56.2 3 84.4 4.6q2.9 0.2 5.9 0.3c8.5-11.1 15.4-20 21.3-27.9q35 43.9 70 87.8-14.3 12.2-28.7 24.4c-9.1 7.7-18.6 15.7-29.9 19.2q-0.9 0.3-1.9 0.6c-13.8 3.6-28.3 0.1-42.1-3.6q-9.4-2.5-18.7-5.2c-23.9-6.8-47.6-14.3-70.8-23.3q-15.1-5.8-29.9-12.5-2.1-1-4.3-2-8.4-3.9-16.7-8.2c-4.4-2.3-10.2-4.5-15.3-4.6-3.2 0-6.3 0-9.5-0.6q-3.2-0.6-6.3-1.7c-4.1-1.3-8-3.3-11.5-5.9-4.7 1.3-8.8 4.1-13.4 5.9z"/><path class="i" d="m761 516.7q0.2 3.7 0.5 7.4l-18 0.1q-0.5-7.7-0.9-15.4-0.7-12-1.4-24-0.8-13.2-1.6-26.4-0.8-14.1-1.7-28.2-0.8-14.8-1.7-29.6-0.9-15.1-1.8-30.2-0.9-15.1-1.8-30.2-0.9-14.9-1.8-29.8-0.8-14.3-1.6-28.6-0.8-13.5-1.6-26.9-0.8-12.4-1.5-24.7-0.1-1.1-0.1-2.3-0.8-12.7-1.5-25.4c-0.3-4-0.2-8.2-0.8-12.2-0.5-2.8-2.5-5.8-5.7-5.7-5.5 0.3-11.1 0.1-16.6 0.1q-9.6 0-19.3 0.1-10.7 0-21.5 0-11.8 0.1-23.6 0.1-12.6 0.1-25.3 0.1-13.3 0.1-26.7 0.1-14 0.1-28 0.1-14.4 0.1-28.8 0.1-14.8 0.1-29.5 0.1-15 0.1-29.9 0.2-15 0-29.9 0.1-14.9 0-29.8 0.1-14.6 0-29.2 0.1-14.3 0-28.6 0.1-13.7 0.1-27.4 0.1-13.1 0-26.2 0.1-12.3 0-24.6 0.1-11.4 0-22.8 0.1-10.3 0-20.6 0c-6.2 0.1-14-0.7-19.1 3.6-5.8 4.8-3.7 13.2-3.3 19.7q1.4 23.6 2.8 47.3 1.6 27.6 3.2 55.2 1.8 29.4 3.5 58.8 1.7 28.9 3.4 57.9 1.6 26.3 3.2 52.7 1.2 21.5 2.5 43.1 0.1 0.9 0.1 1.8l-18.5 0.1q-1.4-24.9-2.9-49.7-1.6-28-3.2-56.1-1.7-29.3-3.5-58.6-1.6-28.7-3.3-57.5-1.6-26.5-3.1-53-1.3-22.3-2.6-44.7c-0.2-3.8-1.2-8.1-0.7-11.8 0.9-6.5 4.1-12.7 8.9-17.1 10-9.3 23.3-7.5 35.9-7.6q16.6 0 33.2-0.1 18.9-0.1 37.9-0.1 20.7-0.1 41.4-0.2 22-0.1 44-0.1 22.8-0.1 45.6-0.2 23.1-0.1 46.2-0.2 22.8-0.1 45.6-0.2 22.1 0 44.2-0.1 20.9-0.1 41.7-0.2 19.1 0 38.2-0.1 16.8-0.1 33.7-0.1 14-0.1 28.1-0.1c2.6-0.1 5.3-0.3 7.9-0.2 5.6 0.4 11.4 3.9 15 8.1 5.7 6.5 6.3 15.2 6.8 23.4q0.4 7.5 0.9 15.1 1 17.8 2 35.7 1.3 20.7 2.5 41.4 1.3 22.6 2.6 45.2 1.4 23.5 2.8 47 1.3 23.4 2.7 46.8 1.3 22.4 2.6 44.7 1.2 20.4 2.4 40.7z"/><path class="j" d="m334.3 526l40.7-0.2 52.2-0.2 39.7-0.2 97.3-0.4 179.3-0.8 18-0.1q0.8 13.6 1.5 27.2c0 10.1 4.1 20.9-2.8 29.6-9.3 11.6-26.2 10.4-39.6 10.4q-16.3 0.1-32.6 0.2-19.2 0-38.4 0.1-21.4 0.1-42.8 0.2-23.1 0-46.1 0.1-22.6 0.1-45.1 0.2-1.6 0-3.2 0-24.5 0.1-49 0.2-17.9 0.1-35.8 0.1-6.4 0.1-12.9 0.1-23.5 0.1-47 0.1-22.2 0.1-44.3 0.2-20.1 0.1-40.2 0.2-17.5 0-34.9 0.1c-13.2 0.1-24-3.4-31.8-15.1-8.9-13.4-9-35.7-9-51.3q0 0 0-0.1l18.5-0.1 57-0.3z"/><path class="d" d="m1242 418.9q-0.6 11.6-1.1 23.3c-8.4 12.3-22.3 20.8-37 22.6-15.3 1.9-38.9-4-42.4-15.3q0 0 0 0c29.3-0.2 58.5-11.3 80.5-30.6z"/><path class="a" d="m1117 417.5c-11.7 17.2-20.7 36.3-26.5 56.3q-7.4 5-14.5 10.8c-5.3 4.3-10.4 8.9-15.2 13.7 4.7-32.2 16.6-63.4 34.6-90.6 6.9 3.8 14.1 7.1 21.6 9.8z"/><path class="b" d="m428.2 744.6c-8.7 0-17.1-5.3-21.2-13-4.3-8.2-3.7-18.6 1.1-26.5 4.4-7.4 12.2-13.2 20.6-15.1q26.7 0.1 53.7 0.4 32.4 0.4 65.1 1.1l-0.3 39.8-0.1 15-118.9 0.2z"/><path class="k" d="m124.7 566.6l3.1 6.9q-2.4 0.3-4.7 0.6z"/><path class="l" d="m127.8 573.5l4.7 10.5-11.7 0.9 2.3-10.8q2.3-0.3 4.7-0.6z"/><path class="b" d="m754.7 711.5c-53.7-4.7-113-4.9-165.7-2.4q0-0.4 0-0.7c12.3-22.9 38.1-36.9 64.7-41.9 26.6-5 54.1-1.9 80.7 3 1.7 0.3 2.7 1.1 4.4 1.5l0.1-0.2c3.4 2.4 8.4 2.6 12.5 1.4q1-0.4 2-0.8h24.9q3.1 1.1 6.3 1.7c3.2 0.6 6.3 0.6 9.5 0.6 5.1 0.1 10.9 2.3 15.3 4.6q8.3 4.3 16.7 8.2 2.2 1 4.3 2c-26.6-6.3-56.5 2.6-74.8 23q-0.4 0-0.9 0z"/><path class="k" d="m203.3 567.6l1.3 6.7-4.8-0.8z"/><path class="m" d="m454.7 771.2q-2.8 18.8-5.6 37.7h-374.9q2.7-18.2 5.4-36.4z"/><path class="c" d="m74.2 808.9q-2.1 14.6-4.3 29.1h-29.4q4.9-32.7 9.7-65.4l29.4-0.1q-2.7 18.2-5.4 36.4z"/><path class="n" d="m396.2 689.9q16.2 0 32.5 0.1c-8.4 1.9-16.2 7.7-20.6 15.1-4.8 7.9-5.4 18.3-1.1 26.5 4.1 7.7 12.5 13 21.2 13v1.9l-121.2 0.2v-2.1c-8.7 0-17.1-5.3-21.2-13-4.3-8.2-3.7-18.6 1.1-26.5 4.7-8 13.3-13.4 22.5-14.7 28.7-0.3 57.7-0.5 86.8-0.5z"/><path class="l" d="m204.6 574.3l1.8 9.2-11.4-1.8 4.8-8.2z"/><path class="o" d="m92.5 577.4q5.7 25.5 11.4 51.1-0.5 0-1 0-4.1 0-8.3 0-1.3 0-2.7 0-5.4-24.3-10.8-48.5z"/><path class="j" d="m589.3 746.2l-42.2 0.1 0.1-15h42.1c0 5 0 10 0 14.9z"/><path class="p" d="m132.5 584q1.6 22.3 3.3 44.5-5.9 0-11.7 0-1.7-21.8-3.3-43.6z"/><path class="c" d="m449.1 808.9q2.8-18.9 5.6-37.7l29.4-0.1q-2.9 19.1-5.7 38.2-2.1 14.3-4.2 28.7h-29.4q2.1-14.5 4.3-29.1z"/><path class="q" d="m144.3 628.4c1.6-46.2 3-100.4 4.7-140.8h22.5c-1.2 29.7-2.3 66.9-3.4 102.9v0.3l-4.6-0.2q-0.8 18.9-1.6 37.9-8 0-15.9 0-0.9 0-1.7 0z"/><path class="p" d="m175.2 591q-0.8 18.8-1.5 37.5-2.3 0-4.5 0-3.6 0-7.3 0 0.8-19 1.6-37.9l4.6 0.2z"/><path class="g" d="m589.3 731.3c-0.1-7.6-0.1-15.2-0.3-22.2 52.7-2.5 112-2.3 165.7 2.4l0.1 34.3-165.5 0.4c0-4.9 0-9.9 0-14.9z"/><path class="o" d="m206.4 583.5q-4.1 22.4-8.2 44.8v0.1c-0.5 0.1-1 0.1-1.4 0.1q-3.2 0-6.4 0-2 0-3.9 0v-0.1q4.2-23.4 8.5-46.7z"/><path class="n" d="m103.9 628.5q9.6 0 19.2 0 0.5 0 1 0 5.8 0 11.7 0 4.3 0 8.5 0 0.8 0 1.7 0 7.9 0 15.9 0 3.7 0 7.3 0 2.2 0 4.5 0 6.4 0 12.8 0 1.9 0 3.9 0 3.2 0 6.4 0c0.4 0 0.9 0 1.4-0.1 1.6-0.1 3.4-0.1 3.8 1.4 0.2 1-0.3 2.5-0.4 3.5q-0.5 3.9-0.9 7.8-1.1 9.8-2.3 19.6-1.3 11.2-2.6 22.5-1.3 11.5-2.6 22.9-1.2 10.3-2.4 20.6-0.9 7.8-1.8 15.6-0.3 2.3-0.5 4.7l-86.7 0.2q-0.1-0.7-0.2-1.4-0.8-6.8-1.5-13.6-1.2-9.6-2.3-19.3-1.3-11.2-2.6-22.4-1.3-11.5-2.6-23-1.2-10.4-2.4-20.7c-0.6-5.4-1.2-10.7-1.8-16-0.3-2.2 0.9-2.3 2.7-2.3q0.4 0 0.8 0 1.4 0 2.7 0 4.2 0 8.3 0 0.5 0 1 0z"/><path class="h" d="m1086.1 351.2c0.6 5.5 0.8 11.1-0.5 16.5-1.3 5.4-4.3 10.5-9.1 13.4-3.7 2.2-8.2 2.9-12.6 2.3q-3.9-4.2-7.3-8.7c-6.2-8.5-11.1-17.8-14.9-27.5-4.4-11.4-7.3-23.4-9.1-35.6 5.9-5.8 14.3-9.4 22.7-7.4 9.7 2.4 17.7 9.7 22.7 18.4 4.9 8.7 7.1 18.7 8.1 28.6z"/><path class="r" d="m1242 417.3q0 0.8 0 1.6c-22 19.3-51.2 30.4-80.5 30.6 0.7-7 1.5-14.3 2.2-21.4 22.6 2.2 45.6 0.5 67.1-6.6q5.7-1.9 11.2-4.2z"/><path class="s" d="m1515.1 332.2l17.6 35.3c-4.5 2.5-8.6 5.5-12.2 9l-18.8-37.7-0.1-0.5c4.5-1.7 8.9-3.6 13.1-5.9z"/><path class="i" d="m1397 536q-30-23.6-59.9-47.1c-28.1-22-60.3-47.1-96-46.5l-0.2-0.2q0 0 0 0c-8.4 12.3-22.3 20.8-37 22.6-15.3 1.9-38.9-4-42.4-15.3q0 0 0 0-1.4 0-2.7-0.1c-27.1 2.9-48.8 11.4-68.3 24.4q-7.4 5-14.5 10.8c-5.3 4.3-10.4 8.9-15.2 13.7-17.1 17.1-31.6 36.8-45.4 56.7-12.1 17.4-20.5 29.3-33 46.1q35 43.9 70 87.8 1.8 2.2 3.6 4.5 0.7-4.4 1.5-8.9 5.5-33.9 11.7-67.8c7.6-57.5 40-112.3 87.6-147 11.7 10.4 27.5 16.2 43.1 15.7 9.5-0.3 18.8-2.9 27.1-7.3 17 80.8 67.3 148.4 105.2 185.9 8.3 8.3 16 15 22.7 20.2-4.9-4.4-7.8-10.8-7.2-17.8q0.2-3.2 0.6-6.4c2.4-20.8 8.3-41.2 18.2-59.6 10.9-20.3 28.3-38.9 48.1-50.6q-8.8-6.9-17.6-13.8z"/><path class="d" d="m1579.1 406.1c1.1 3.5 1 7.2 0.8 10.8q-0.7-0.2-1.4-0.2c-2.2 0-4.4 0.8-6.4 1.6-8.9 3.8-16.6 10.3-21.8 18.5q-0.3 0.3-0.5 0.8c-3.7 1.3-8.3-0.3-10.8-3.5-2.7-3.5-3.1-8.3-1.9-12.5q0.5-1.6 1.3-3.2c1.4-2.9 3.4-5.5 5.7-7.8 4.8-4.9 10.6-8.8 16.9-11.4 2.9-1.1 6-2 9-1.6q1.1 0.1 2.1 0.5c3.5 1.2 5.9 4.5 7 8z"/><path class="d" d="m1520.5 376.5c3.6-3.5 7.7-6.5 12.2-9q2.2-1.1 4.4-2.1c3.6-1.6 7.4-2.9 11.4-3 4-0.1 8.1 1.1 10.9 3.8 2.8 2.8 4.1 7.2 2.6 10.9l0.1 0.1c-2.1 0.1-4.2 0.7-6.2 1.4-8.5 3.1-16.3 8.1-22.6 14.6-1.9 2-3.7 4.1-5.1 6.6-0.9-0.2-1.8-0.6-2.6-1.1q1.7-1.3 3.3-2.8c2.9-2.8 5.3-6.2 5.7-10.2 0.3-4-2.1-8.3-6-9.1-2.9-0.5-5.7 0.9-8.4 2.2q-1.5 0.7-3 1.4v-0.1q1.5-1.9 3.3-3.6z"/><path class="a" d="m1317.7 66q-0.6-1.1-1.3-2.4c23.3 7.4 33.6 21.9 38.5 33.1 2 4.4 3.1 8.3 3.9 11 11.6 42 11.7 85.8 8.5 129.5q-0.8 11.3-1.9 22.6c-5.1 44.6-23.8 34.6-25.9 28.6-2.2-6.1-1.7-12.7-1.3-19.1q1.1-19.5 0.9-39 0-2 0-4.1c-0.6-47.9-6.7-95.7-15.7-142.8-1.1-6.1-3.1-11.9-5.7-17.4z"/><path class="i" d="m1032.6 311.6c1.8 12.2 4.7 24.2 9.1 35.6l-0.4 0.1c-11.2 2.1-23.5-1.4-31.2-9.8-8-8.6-10.9-20.8-12-32.4-0.8-8.3-1-16.6-0.4-24.9 0.5-7.4 1.5-14.7 3.1-22 2-9.1 5.1-18.4 11.7-25 4.8-4.8 12-7.7 18.6-7.1-0.5 18.4-1.4 36.7-1 55 0.3 10.1 1 20.4 2.5 30.5z"/><path  d="m1109.7 258.8c8 0 14.5 6.5 14.5 14.5 0 7.9-6.5 14.4-14.5 14.4-7.9 0-14.4-6.5-14.4-14.4 0-8 6.5-14.5 14.4-14.5z"/><path class="j" d="m1354.7 342c-4.4 4.1-9.7 7.4-15.3 9.4-13.2 1.6-23.3-9.5-28.5-20.5-5.8-12.2-6.7-26-5.9-39.4 1-16 4.8-32.4 14.5-45.2 5.3-6.9 12.1-12.7 19.6-16q0.2 19.5-0.9 39c-0.4 6.4-0.9 13 1.3 19.1 2.1 6 20.8 16 25.9-28.6q1.1-11.3 1.9-22.6h0.2c3.8 3.6 6.4 7.8 8.4 12 2.3 5 3.5 10.1 4.2 14.2 2 12.7-0.4 25.7-3.9 38.1-1.7 6.3-3.7 12.6-6.4 18.5-2.8 6.4-6.3 12.5-10.9 17.7q-1.9 2.3-4.2 4.3z"/><path class="t" d="m1161.5 449.5q0 0 0 0 0 0 0 0 0 0 0 0z"/><path class="d" d="m1528.2 399.8c1.4-2.5 3.2-4.6 5.1-6.6 6.3-6.5 14.1-11.5 22.6-14.6 2-0.7 4.1-1.3 6.2-1.4 2.3-0.2 4.6 0.2 6.4 1.6 2.7 1.9 3.8 5.4 3.8 8.6-0.1 3.3-1.2 6.4-2.2 9.5l-0.1 0.7c-3-0.4-6.1 0.5-9 1.6-6.3 2.6-12.1 6.5-16.9 11.4-2.3 2.3-4.3 4.9-5.7 7.8-3.6 1.6-8.2 0-10.5-3.2-2.4-3.4-2.6-7.9-1.3-11.8q0.6-1.9 1.6-3.6z"/><path class="u" d="m1359.7 349.7c2.2 3.9 3.7 8.2 2.4 12.4-1.4 4.8-6.2 8.1-11.1 8.6-5 0.5-10-1.5-13.5-4.8-1.2 9.5-10.5 16.4-20 18-8 1.4-16.3-0.1-24.3-2.1l-0.2-0.2c8.9-9.1 16.8-19.1 23.7-29.8q3.2 1.1 6.5 1.5c5.5 0.7 11-0.1 16.2-1.9 5.6-2 10.9-5.3 15.3-9.4q0.6 0.9 1.2 1.7c1.3 1.9 2.7 3.9 3.8 6z"/><path class="b" d="m1205.6 325.2c2.2 12.6-3 26.2-13 34.1-10 7.9-24.5 9.8-36.2 4.7-6.9-3-12.6-8.3-16.4-14.7-1.8-3-4.5-9.8-4.9-13.3 0 0 50.1-7.1 70.5-10.8z"/><path class="k" d="m1381.4 689.9v0.1l-12.5 148h-50c4.2-56.8 9.2-117.4 13.3-174 8.3 8.3 16 15 22.7 20.2 4 3.8 9.4 6.2 15.2 6.7 3.8 0.4 7.6 0 11.3-1z"/><path class="a" d="m1408.5 693l-12.9 145h-26.7l12.5-148v-0.1c3.1-0.9 6.1-2.2 9-3.8q5.1 2.4 10.4 4.4 3.8 1.4 7.7 2.5z"/><path class="t" d="m1245.3 415.8q-1.6 1.6-3.3 3.1 0-0.8 0-1.6 1.7-0.7 3.3-1.5z"/><path  d="m1206.9 259.3c8 0 14.5 6.5 14.5 14.4 0 8-6.5 14.5-14.5 14.5-7.9 0-14.4-6.5-14.4-14.5 0-7.9 6.5-14.4 14.4-14.4z"/><path class="t" d="m1161.5 449.5q-1.4 0-2.7-0.1 1.3-0.1 2.6-0.2 0 0.1 0.1 0.3z"/><path class="i" d="m1339.1 226.2q0 2.1 0 4.1c-7.5 3.3-14.3 9.1-19.6 16-9.7 12.8-13.5 29.2-14.5 45.2-0.8 13.4 0.1 27.2 5.9 39.4 5.2 11 15.3 22.1 28.5 20.5-5.2 1.8-10.7 2.6-16.2 1.9q-3.3-0.4-6.5-1.5c-10.4-3.7-18.9-12.4-23.7-22.4-5.7-12.2-6.7-26-5.9-39.4 0.5-7.8 1.7-15.8 3.9-23.3 2.3-7.9 5.7-15.4 10.7-21.9 9.2-12 22.8-20.7 37.4-18.6z"/><path class="a" d="m1012.5 233.2c-6.6 6.6-9.7 15.9-11.7 25-1.6 7.3-2.6 14.6-3.1 22h-0.1c2.1-29.8 10.2-59.2 23.7-85.9q4.9 0.2 9.8 0c0.4 10.6 0.3 21.2 0 31.8-6.6-0.6-13.8 2.3-18.6 7.1z"/><path class="k" d="m1158.8 449.4c-27.1 2.9-48.8 11.4-68.3 24.4 5.8-20 14.8-39.1 26.5-56.3 9.7 3.6 19.8 6.3 29.9 8.1q8.3 1.6 16.8 2.5c-0.7 7.1-1.5 14.4-2.2 21.4q0 0 0 0-0.1-0.2-0.1-0.3-1.3 0.1-2.6 0.2z"/><path class="k" d="m1337.1 488.9c-28.1-22-60.3-47.1-96-46.5l-0.2-0.2q0 0 0 0 0.5-11.7 1.1-23.3 1.7-1.5 3.3-3.1c17.9-8.2 33.9-20 47.7-34.2l0.2 0.2c8 2 16.3 3.5 24.3 2.1 9.5-1.6 18.8-8.5 20-18 3.5 3.3 8.5 5.3 13.5 4.8 4.9-0.5 9.7-3.8 11.1-8.6 1.3-4.2-0.2-8.5-2.4-12.4 9.9-2 19.8-3.1 29.7-1.9 15 1.8 30.1 10 35.9 23.9 5.9 14.4 0.8 30.7-3.7 45.6-11.8 38.7-19.3 78.5-24.6 118.7q-30-23.6-59.9-47.1z"/><path class="d" d="m1390.4 686.1c-14.9-7-28.6-16.5-42.1-26.1 2.4-20.8 8.3-41.2 18.2-59.6 10.9-20.3 28.3-38.9 48.1-50.6q4.1 3.2 8.1 6.3 4.5 3.6 9 7.1l0.2 0.1c21.1-38.6 42.3-77.5 64.4-117.9-5.5-13.5-10.7-28.9-5.3-42.5 2.4-5.9 6.6-10.9 11.5-14.9 2.5-2.1 4.1-3.5 7.2-4.6q3.8-1.5 7.5-3.2 1.5-0.7 3-1.4c2.7-1.3 5.5-2.7 8.4-2.2 3.9 0.8 6.3 5.1 6 9.1-0.4 4-2.8 7.4-5.7 10.2q-1.6 1.5-3.3 2.8c0.8 0.5 1.7 0.9 2.6 1.1q-1 1.7-1.6 3.6c-1.3 3.9-1.1 8.4 1.3 11.8 2.3 3.2 6.9 4.8 10.5 3.2q-0.8 1.6-1.3 3.2c-1.2 4.2-0.8 9 1.9 12.5 2.5 3.2 7.1 4.8 10.8 3.5q0.2-0.5 0.5-0.8c5.2-8.2 12.9-14.7 21.8-18.5 2-0.8 4.2-1.6 6.4-1.6q0.7 0 1.4 0.2c4.1 0.8 6.3 5.6 6.4 9.7 0.1 3.1-0.8 6.2-1.9 9.1-4.6 12.9-11.8 26.3-21.1 36.5-5.5 6.1-8.6 13.1-10.2 21.2q-2 10.2-4.1 20.3c-2.8 13.4-5.9 26.7-9.3 40-7.9 30.2-17.9 60-32.2 87.8-10.2 19.8-23.5 39.5-43.6 49-17.1 8.1-37.1 7.7-55.4 2.5q-3.9-1.1-7.7-2.5-5.3-2-10.4-4.4z"/><path class="a" d="m1414.6 549.8q-8.8-6.9-17.6-13.8c5.3-40.2 12.8-80 24.6-118.7 4.5-14.9 9.6-31.2 3.7-45.6-5.8-13.9-20.9-22.1-35.9-23.9-9.9-1.2-19.8-0.1-29.7 1.9-1.1-2.1-2.5-4.1-3.8-6q-0.6-0.8-1.2-1.7 2.3-2 4.2-4.3c4.6-5.2 8.1-11.3 10.9-17.7l0.5 0.3c13.4-1.6 26.9-2 40.1 0.5 21.9 4 43.4 17.7 50.2 38.9 7 21.2-1.9 44-9.2 65.1-14.6 42.2-23.2 87.1-28.7 131.3q-4-3.1-8.1-6.3z"/><path class="v" d="m1227 478.1c-8.3 4.4-17.6 7-27.1 7.3-15.6 0.5-31.4-5.3-43.1-15.7-47.6 34.7-80 89.5-87.6 147q-6.2 33.9-11.7 67.8-0.8 4.5-1.5 8.9-4.1 25.9-7.8 51.8-1.7 12-3.4 23.9-2.7 20.1-5.2 40.2-1.8 14.3-3.4 28.7h228q13.9-110.3 27.9-220.7c-27.5-37.1-53.7-85.2-65.1-139.2z"/><path class="w" d="m1332.2 664c-12.6-12.4-26.5-28.2-40.1-46.7q-14 110.4-27.9 220.7h54.7c4.2-56.8 9.2-117.4 13.3-174z"/><path class="u" d="m1393.4 163.8q0-0.2 0-0.4c-1.7-26.7-15.5-54.3-38.5-66.7 2 4.4 3.1 8.3 3.9 11 5.4 19.8 8.3 39.9 9.6 60.3 1.3 22.9 0.6 46-1.1 69.2h0.2c3.8 3.6 6.4 7.8 8.4 12 9.8-27.7 19.3-56.2 17.5-85.4z"/><path class="u" d="m1323.4 83.4c-1.1-6.1-3.1-11.9-5.7-17.4q-0.6-1.1-1.3-2.4c-13.2-20.9-77.7-64.2-188-37.8-13.8 3.3-28.3 7.7-43.4 13.3-9.7 3.6-19.8 5.9-30.1 7-19.5 2-39.1 3.6-56.9 11.6-19.2 8.5-35.3 24.5-42.7 44.2-7.4 19.7-5.6 42.9 5.8 60.6 12.9 19.8 36.3 30.5 60.2 31.8q4.9 0.2 9.8 0 4.7-0.3 9.3-1.1c22.3-3.6 42.6-14.6 60.4-28.9 2.8 3.5 6.1 6.5 9.6 9.1 15.1 11 34.6 14.6 53.2 13.6 26.7-1.3 52.7-11.5 73.5-28.3-0.6 14.3 1.9 28.7 8.3 41.6 3.3 6.6 7.7 12.7 12.9 17.9q4 4 8.5 7.2c4.1 2.9 7.4 5.2 8.7 10.1 1.5 5.6 3.4 10.9 5.8 16.1 2.5 5.2 5.4 10.2 8.9 14.9l0.8 0.2c2.3-7.9 5.7-15.4 10.7-21.9 9.2-12 22.8-20.7 37.4-18.6-0.3-23-1.9-46-4.4-69-2.8-24.7-6.6-49.3-11.3-73.8z"/><path class="x" d="m1514.9 331.9l-7.6-7.4-6.4 2.9 0.7 10.9c4.5-1.7 8.9-3.6 13.1-5.9l0.4-0.2z"/><path class="u" d="m1500.2 317.8l0.7 9.6 6.4-2.9z"/><path class="i" d="m515.6 592.3v-0.2q-1.6 0-3.2 0-24.5 0.1-49 0.2-17.9 0.1-35.8 0.1v0.5l-10.3 32h87.3q5.5-16.3 11-32.6z"/><path class="j" d="m417.3 624.9l-21.1 65q16.2 0 32.5 0.1 26.7 0.1 53.7 0.4 11.1-32.7 22.2-65.5z"/><path class="m" d="m484.1 771.1q-2.9 19.1-5.7 38.2h505.2l-6.4-40z"/><path class="a" d="m997.4 745.4h-3.6l-239 0.4-165.5 0.4-42.2 0.1-118.9 0.2-121.2 0.2-118.5 0.3-86.7 0.2-91.7 0.1v25.4l40.1-0.1 29.4-0.1 375.1-1.3 29.4-0.1 513.3-1.8z"/><path class="n" d="m1352.7 98.3c1.2 0.6 2.5 1.3 3.8 0.9 2.1-0.7 2.2-3.7 1.7-5.9-4.2-17.1-19.3-30.9-36.6-33.6-2.3-0.3-5.3-0.1-6.2 2.1-1 2.2 1.2 4.4 2.7 6.4 2.8 3.6 3.7 8.2 4.5 12.7 0.5 3.1 0.4 9.4 2.1 12 1.6 2.5 4.8 0.9 8.1 0.8 6.8-0.1 13.8 1.5 19.9 4.6z"/><path class="a" d="m1050.9 404.9c3.5 6 9.1 10.6 15.7 13 2.4 0.8 5.1 1.4 7.6 0.7 2.5-0.7 4.7-2.9 4.6-5.5 0-2.3-1.7-4.2-3.6-5.5-2-1.2-4.2-1.9-6.1-3.1-4.7-3.1-8-10-14-11-6.9-1.1-6.7 7.2-4.2 11.4z"/><path class="b" d="m368 435.9c-2.4 1.3-3.5 4.4-3 7.2 0.5 2.7 2.3 5 4.5 6.8 3.9 3.3 9.1 5.1 14.2 5 5.1-0.1 10.2-2.1 14-5.6 1.8-1.6 3.3-3.8 3.4-6.2 0.2-5.9-5.5-4.1-9.1-4.3-5.3-0.3-10.5-1.1-15.6-2.6-2.8-0.7-5.8-1.6-8.4-0.3z"/><path fill-rule="evenodd" class="d" d="m416.7 455.1c-2.1 4.5-4 8.1-7.9 11.4-4.4 3.9-9.9 7.3-15.7 8.3-5.1 1-10.4 1.3-15.6 0.9-5-0.3-10-1.3-14.8-2.9q-3.2-1-6.2-2.4c-12.5-5.8-22.6-15.9-29-28.1-4.1 2.5-9.2 3.3-13.8 2.1-6.1-1.7-10.8-6.7-12.2-12.9-1.2-5.2 0.5-11.1 4.8-14.3q0.3-0.2 0.5-0.4c4.3-2.8 10.6-2.4 14 1.3l0.3-0.2c4.3-2.3 8.1-5.5 10.9-9.5 1.4-1.9 2.4-3.9 3.4-6 0.9-2 2.5-1.9 4.6-1.9 1.9 0.1 4-0.4 5.9-0.7 3.9-0.8 7.8-2 11.4-3.7 4.2-1.9 8.1-4.5 11.6-7.6q0.8 0.9 1.7 1.7c5.3 4.4 13 5 19.8 3.5 12.7-3 23.3-13.2 27.1-25.6h0.1c5 8 7.7 17.3 7.8 26.7 0 2.2-0.1 4.4-0.3 6.7-0.2 2.3-0.4 4.7-0.5 7q-0.1 4-0.2 7.9-0.1 3.9-0.4 7.8c-0.5 7.4-1.6 14.8-3.8 21.9q-1.3 4.6-3.5 9zm-47.2-5.2c3.9 3.3 9.1 5.1 14.2 5 5.1-0.1 10.2-2.1 14-5.6 1.8-1.6 3.3-3.8 3.4-6.2 0.2-5.9-5.5-4.1-9.1-4.3-5.3-0.3-10.5-1.1-15.6-2.6-2.8-0.7-5.8-1.6-8.4-0.3-2.4 1.3-3.5 4.4-3 7.2 0.5 2.7 2.3 5 4.5 6.8z"/><path class="a" d="m275.5 526.2h85.1c0.6-4.6 1.1-9.2 0.8-13.9-0.5-6.1-2.4-12.4-6.5-16.9-2.6-2.9-5.9-4.9-8.7-7.5-2.1-1.9-4-4.3-4.8-7-27.2 4.3-52.3 21.4-65.9 45.3z"/><path class="a" d="m376 526.2h59.7c-3.2-12.4-12.5-23-23.6-29.8-7.8-4.9-16.4-8.1-25.3-10.6-0.1 1.5-0.8 2.9-1.7 4.1-1.2 1.7-2.8 3-4.1 4.6-3.4 4.3-4.4 11-3.9 16.4 0.4 5.1-0.4 10.2-1.1 15.3z"/><path class="u" d="m417.5 368.1h0.1c5 8 7.7 17.3 7.8 26.7 0 2.2-0.1 4.4-0.3 6.7 11.3-5.1 20.7-14.7 24.5-26.5 4-12.7 0.9-27.9-8.9-37.1-7.9-7.3-18.8-10.3-29.5-12.1-18.3-3-37.1-3.2-55.4-0.5-9.8 1.5-19.6 3.8-27.8 9.2-8 5.2-14.3 13.7-15 23.1l-1.4-0.1c-4.5 0.5-8.4 3.9-10.6 7.9-2.2 4.1-2.9 8.7-3.1 13.3-0.5 13.2 2.6 26.5 8.9 38.1 4.3-2.8 10.6-2.4 14 1.3l0.3-0.2c4.3-2.3 8.1-5.5 10.9-9.5 1.4-1.9 2.4-3.9 3.4-6 0.9-2 2.5-1.9 4.6-1.9 1.9 0.1 4-0.4 5.9-0.7 3.9-0.8 7.8-2 11.4-3.7 4.2-1.9 8.1-4.5 11.6-7.6q0.8 0.9 1.7 1.7c5.3 4.4 13 5 19.8 3.5 12.7-3 23.3-13.2 27.1-25.6z"/><path class="y" d="m424 424.2c-0.5 7.4-1.6 14.8-3.8 21.9 2.1 0.2 4.1 0 6.1-0.5 6.1-1.7 10.8-6.7 12.2-12.8 1.2-5.3-0.5-11.2-4.8-14.4-2.6-2-6.1-2.6-9.3-2q-0.1 3.9-0.4 7.8z"/><path class="a" d="m443.6 526.2h35.9c0.2-4.3 0.8-8.6 1.9-12.8q-17.1-2.9-34.3-5.8c-1.6 6.1-2.8 12.3-3.5 18.6z"/><path class="d" d="m348 480.1c2.1 3.9 5.9 6.9 10 8.4 4.6 1.7 9.7 1.8 14.5 1 1.9-0.3 3.8-0.7 5.4-1.7 1.4-0.8 2.5-2.1 3-3.6q-2.3-0.6-4.7-1.1h-0.2q-0.1-0.4-0.1-0.9c-7.5-0.6-14.8-3.4-20.7-8q-1 2.8-1.9 5.6-2.7 0.1-5.3 0.3z"/><path class="y" d="m356.5 470.4q-0.7 1.9-1.3 3.8c5.9 4.6 13.2 7.4 20.7 8 0-1.2 0.4-2.4 0.8-3.6q0.4-1.4 0.8-2.9c-5-0.3-10-1.3-14.8-2.9q-3.2-1-6.2-2.4z"/><path class="n" d="m341.4 480.9c0.8 2.7 2.7 5.1 4.8 7 2.8 2.6 6.1 4.6 8.7 7.5 4.1 4.5 6 10.8 6.5 16.9 0.3 4.7-0.2 9.3-0.8 13.9h15.4c0.7-5.1 1.5-10.2 1.1-15.3-0.5-5.4 0.5-12.1 3.9-16.4 1.3-1.6 2.9-2.9 4.1-4.6 0.9-1.2 1.6-2.6 1.7-4.1q-2.9-0.9-5.9-1.6c-0.5 1.5-1.6 2.8-3 3.6-1.6 1-3.5 1.4-5.4 1.7-4.8 0.8-9.9 0.7-14.5-1-4.1-1.5-7.9-4.5-10-8.4q-3.3 0.3-6.6 0.8z"/><path class="d" d="m459.8 474.9c-2.6-0.6-5.6 0-7.7 1.7-3.1 2.3-4.7 6.2-5.2 10-0.5 4.4 0.4 9 2.5 12.9q-1.2 4-2.3 8.1 17.2 2.9 34.3 5.8 0.9-3.5 2.3-7c4-1.1 7.4-4.2 9-8.1 1.6-3.9 1.2-8.6-1.1-12.3 0.6-1.4 0.5-3.1-0.2-4.5-0.9-1.6-2.7-2.7-4.5-2.7l-0.4-0.2c1-2 0.9-4.4-0.4-6.2-1.6-2.4-4.8-3.1-7.5-2.9-1.1 0.1-2.3 0.4-3.2 1.2v-0.1c0.9-1.7 2.2-3.2 3.1-4.9 1.2-2.3 3.1-4.2 4.9-6.1 2-2.3 4.1-4.9 4.2-8 0.1-1.6-0.4-3.4-1.8-4.2-1.1-0.8-2.6-0.8-3.9-0.3-1.3 0.4-2.4 1.3-3.4 2.2-4.1 3.5-6.8 7.8-10 12.1-3.2 4.2-6.1 8.8-8.7 13.5z"/><path class="b" d="m407.9 405.5c7.3 0 13.3 5.9 13.3 13.3 0 7.3-6 13.2-13.3 13.2-7.3 0-13.3-5.9-13.3-13.2 0-7.4 6-13.3 13.3-13.3z"/><path class="b" d="m373.7 403.8c7.3 0 13.2 6 13.2 13.3 0 7.3-5.9 13.3-13.2 13.3-7.4 0-13.3-6-13.3-13.3 0-7.3 5.9-13.3 13.3-13.3z"/><path class="u" d="m415.8 399.4c0.6 0 1.1-0.3 1.5-0.8 0.5-0.8 0.3-1.9-0.5-2.4-3.5-2.5-7.8-3.6-12-3.3-1 0.1-1.7 0.9-1.6 1.9 0 1 0.9 1.7 1.8 1.6 3.5-0.3 7 0.7 9.8 2.7q0.5 0.3 1 0.3z"/><path class="u" d="m367.5 397.1c-0.5 0-1.1-0.2-1.4-0.7-0.6-0.8-0.4-1.9 0.4-2.5 3.5-2.4 7.8-3.6 12.1-3.2 0.9 0 1.6 0.9 1.6 1.8-0.1 1-0.9 1.7-1.9 1.6-3.4-0.2-7 0.7-9.8 2.7q-0.5 0.3-1 0.3z"/><path class="z" d="m434.5 165.5v0.2h2.7q-1.4 0-2.7-0.2z"/><path class="b" d="m437.2 135.4c-6.9 0-12.6 5.6-12.6 12.5 0 3.5 1.4 6.6 3.7 8.9 2.3 2.3 5.4 3.7 8.9 3.7h32.2c6.9 0 12.6-5.7 12.6-12.6 0-3.4-1.5-6.5-3.7-8.8-2.3-2.3-5.4-3.7-8.9-3.7z"/><path class="a" d="m419.4 130.1c-9.8 0-17.8 8-17.8 17.8 0 9.8 8 17.8 17.8 17.8h15.1v-0.2c-8.6-1.3-15.1-8.7-15.1-17.6 0-9.8 7.9-17.8 17.8-17.8z"/><path fill-rule="evenodd" class="n" d="m437.2 165.7q-1.4 0-2.7-0.2c-8.6-1.3-15.1-8.7-15.1-17.6 0-9.8 7.9-17.8 17.8-17.8h32.2c9.8 0 17.8 8 17.8 17.8 0 9.8-8 17.8-17.8 17.8zm44.8-17.8c0-3.4-1.4-6.5-3.6-8.8-2.3-2.3-5.4-3.7-8.9-3.7h-32.3c-6.9 0-12.5 5.6-12.5 12.5 0 3.5 1.4 6.6 3.7 8.9 2.3 2.3 5.4 3.7 8.8 3.7h32.3c6.9 0 12.5-5.7 12.5-12.6z"/><path class="a" d="m434.5 165.7v4.5q9 0 18 0 1.5 0 3 0v-4.5h-10.8-7.5z"/><path class="a" d="m465.3 147.9c0 1.9 1.5 3.5 3.5 3.5 1.9 0 3.4-1.6 3.4-3.5 0-1.9-1.5-3.5-3.4-3.5-2 0-3.5 1.6-3.5 3.5z"/><path class="n" d="m435 147.9c0 5.1 4 9.2 9.1 9.2 5 0 9.1-4.1 9.1-9.2 0-5-4.1-9.1-9.1-9.1-5.1 0-9.1 4.1-9.1 9.1z"/><path class="a" d="m440.6 147.9c0 1.9 1.6 3.5 3.5 3.5 1.9 0 3.5-1.6 3.5-3.5 0-1.9-1.6-3.4-3.5-3.4-1.9 0-3.5 1.5-3.5 3.4z"/><path class="A" d="m320.2 431c-0.6-2.4-2.2-4.4-4.4-5.4-2.1-1.1-4.8-1.1-6.9-0.1"/><path class="A" d="m390.4 428.2c1.3-0.3 2.6 0 3.5 0.9 0.9 0.9 1.3 2.2 1 3.4"/><path class="u" d="m1222.1 224c-0.9 0-1.9-0.4-2.7-1-5.9-4.9-15.1-10.6-25.2-9.8-2.3 0.2-4.3-1.6-4.5-3.9-0.2-2.3 1.6-4.3 3.9-4.5 12.9-1 24.1 5.8 31.2 11.7 1.8 1.5 2 4.1 0.5 5.9-0.8 1-2 1.6-3.2 1.6z"/><path class="u" d="m1081.1 227.9c-1 0-2-0.3-2.8-1.1-1.7-1.5-1.9-4.2-0.3-5.9 6.6-7.3 16.1-12 25.9-12.9 2.3-0.3 4.4 1.5 4.6 3.8 0.2 2.3-1.5 4.3-3.8 4.5-7.8 0.7-15.2 4.4-20.5 10.2-0.8 0.9-1.9 1.4-3.1 1.4z"/><path class="r" d="m1132.2 322.1q-0.5 0-1.1-0.4c-3.7-2.2-9-5.9-12.3-11.3-3.3-5.7-3.8-12.3-1-17.3 2.1-4 6.4-7 11.7-8.4 4.4-1.1 8.8-1 13.7-0.8 1.2 0 2.1 1 2.1 2.1-0.1 1.2-1 2.1-2.2 2.1-4.6-0.2-8.7-0.3-12.5 0.7-4.2 1-7.5 3.4-9.1 6.3-2 3.7-1.6 8.8 0.9 13.1 2.8 4.7 7.6 7.9 10.9 10 1 0.6 1.3 1.9 0.7 2.8-0.4 0.7-1.1 1.1-1.8 1.1z"/><path class="r" d="m1521.4 439.1q-0.3 0-0.7-0.1c-1.1-0.4-1.6-1.6-1.2-2.7 2.5-6.9 2.2-15-0.8-22q-1.2-2.6-2.7-4.9-0.3-0.5-0.6-0.8c-0.7-1-1.6-2.1-1.3-3.6 0.3-1.4 1.5-2.2 2.5-2.8 3.9-2.4 7.7-4.8 10.9-7.8 3.1-3 4.7-6 5-8.9 0.2-2.8-1.5-6.3-4.3-6.8-2.2-0.4-4.6 0.8-6.9 1.9l-0.2 0.1c-1 0.5-2.3 0.1-2.8-1-0.5-1-0.1-2.3 1-2.8h0.1c2.8-1.4 6-3 9.6-2.3 5.2 1 8.1 6.6 7.7 11.3-0.4 3.9-2.5 7.8-6.3 11.5-3.5 3.3-7.5 5.9-11.7 8.4q0 0-0.1 0 0.1 0.1 0.1 0.2 0.4 0.5 0.8 1 1.7 2.6 3 5.6c3.5 8 3.8 17.2 0.9 25.2-0.3 0.8-1.1 1.3-2 1.3z"/><path class="r" d="m1535.4 421.1c-3.4 0-7-1.7-9.2-4.7-2.6-3.6-3.2-8.8-1.6-13.7 1.2-3.7 3.5-7.2 7.2-11 6.5-6.7 14.6-11.9 23.4-15.1 2.7-0.9 5.1-1.4 7.2-1.5 1.2-0.1 2.2 0.8 2.2 2 0.1 1.2-0.8 2.1-2 2.2q-2.6 0.1-6 1.3c-8.2 2.9-15.7 7.8-21.8 14-3.2 3.4-5.2 6.4-6.2 9.4-1.2 3.6-0.8 7.4 1 10 1.9 2.6 5.7 3.7 8.2 2.4 1-0.6 2.3-0.2 2.9 0.9 0.5 1 0.1 2.3-0.9 2.8-1.4 0.7-2.9 1-4.4 1z"/><path class="r" d="m1555.6 451.1c-3.8 0-7.7-1.5-9.1-5.1-1.2-2.9-0.6-6.3 2-10.4 5.4-8.5 13.5-15.3 22.8-19.2 2-0.9 4.5-1.8 7.1-1.8q0.1 0 0.1 0c1.2 0 2.1 1 2.1 2.2 0 1.1-0.9 2.1-2.1 2q0 0-0.1 0c-1.9 0-3.8 0.8-5.5 1.4-8.5 3.6-15.9 9.9-20.8 17.7-1.8 2.8-2.4 5-1.7 6.5 0.9 2.4 4.6 2.9 7.6 2.2 7-1.6 12.7-7.7 17.3-12.5 0.7-0.9 2.1-0.9 2.9-0.1 0.9 0.8 0.9 2.1 0.1 3-4.9 5.2-11.1 11.8-19.4 13.7q-1.6 0.4-3.3 0.4z"/><path class="r" d="m1547 440.1c-3.6 0-7.3-1.7-9.6-4.7-3-3.8-3.8-9.2-2.3-14.4 1.2-4 3.6-7.9 7.5-11.9 5-5 11.1-9.1 17.6-11.8 3.2-1.3 8-2.8 12.6-1.2 1.1 0.4 1.7 1.6 1.3 2.7-0.4 1.1-1.6 1.7-2.7 1.3-2.5-0.9-5.5-0.6-9.6 1.1-6 2.4-11.6 6.2-16.2 10.9-3.4 3.4-5.5 6.7-6.4 10.1-1.2 3.8-0.6 7.9 1.5 10.6 2.2 2.8 6.2 3.9 9.1 2.5 1-0.6 2.3-0.1 2.8 0.9 0.5 1 0.1 2.3-0.9 2.8-1.5 0.8-3.1 1.1-4.7 1.1z"/><path class="B" d=""/><path class="C" d="m752.8 745.7l-0.2-33.6h4.2l0.2 33.6z"/><path class="r" d="m735.2 665.3q0 0-0.1 0c-1.1 0-2-1-2-2.1 0-2 0.4-4 1.2-5.8 1.7-3.8 4.7-6.7 6.9-8.5 10.4-9.1 24.3-14.1 38.1-13.6 1.2 0 2.1 1 2 2.1 0 1.2-0.9 2.1-2.1 2.1-12.8-0.4-25.6 4.2-35.3 12.5-2.9 2.6-4.7 4.8-5.7 7.1-0.6 1.3-0.9 2.7-0.9 4.1 0 1.2-1 2.1-2.1 2.1z"/><path class="e" d="m575.9 287.9c-0.8 0-1.5-0.4-1.9-1.1l-12.4-24.1c-0.5-1-0.1-2.2 0.9-2.8 1.1-0.5 2.3-0.1 2.9 0.9l9 17.5 2.2-29.1c0.1-1.1 1-1.9 2.1-1.9l59.2-1c1.1 0 2.1 1 2.1 2.1 0 1.2-0.9 2.1-2 2.1l-57.3 0.9-2.7 34.6c-0.1 0.9-0.8 1.7-1.7 1.9q-0.2 0-0.4 0z"/><path class="e" d="m602.4 284.5c-0.6 0-1.1-0.3-1.5-0.7-5.4-6-10.1-12.6-14-19.6-0.5-1.1-0.2-2.3 0.9-2.9 1-0.5 2.3-0.2 2.8 0.8 3.7 6.8 8.2 13.1 13.4 18.8 0.8 0.9 0.7 2.2-0.2 3-0.4 0.4-0.9 0.6-1.4 0.6z"/><path class="e" d="m588.8 288.1q-0.7 0-1.2-0.3c-1-0.7-1.2-2-0.6-3 2.2-3.2 4.8-7.5 7.2-11.8 2.5-4.3 5.1-8.7 7.4-12 0.7-1 2-1.2 3-0.6 0.9 0.7 1.1 2 0.5 2.9-2.2 3.3-4.8 7.6-7.2 11.8-2.5 4.3-5.1 8.8-7.4 12.1-0.4 0.6-1.1 0.9-1.7 0.9z"/><path class="e" d="m622.6 273.7q0 0 0 0l-12.3-0.3c-1.2-0.1-2.1-1-2-2.2 0-1.2 1-2.1 2.1-2l12.3 0.3c1.1 0 2 1 2 2.2 0 1.1-1 2-2.1 2z"/><path class="e" d="m639 284.8c-4.8 0-9.7-2.5-12.1-6.7-3.3-5.9-1.4-14 4.2-17.8 5.6-3.8 13.8-2.6 18 2.7 1.7 2 2.6 4.3 2.5 6.6 0 2.8-1.4 5.4-3.6 6.7-1.8 1.1-4 1.1-5.8 0.4q-0.9 0.7-2 1c-1.9 0.6-3.9 0.2-5.2-1-1.2-1-1.9-2.4-2-4-0.1-1.8 0.5-3.5 1.6-4.8 1.9-2.1 5.2-3 8.2-2.1 1.1 0.3 1.7 1.5 1.4 2.6-0.3 1.1-1.5 1.8-2.6 1.4-1.4-0.4-3 0-3.8 0.9-0.4 0.4-0.6 1.1-0.6 1.7 0 0.3 0.1 0.8 0.5 1.2 0.3 0.2 0.8 0.3 1.3 0.1 0.2-0.1 0.5-0.2 0.6-0.5 0.2-0.7 0.8-1.3 1.6-1.5 0.7-0.1 1.5 0.1 2 0.7 0.6 0.6 1.8 0.8 2.7 0.3 0.9-0.6 1.5-1.8 1.5-3.1 0.1-1.3-0.5-2.7-1.5-4-2.9-3.5-8.7-4.4-12.4-1.8-3.8 2.5-5.2 8.2-2.9 12.2 2.2 4 7.8 5.8 11.9 3.9 1.1-0.5 2.3-0.1 2.8 1 0.5 1 0.1 2.3-1 2.8-1.7 0.8-3.5 1.1-5.3 1.1z"/><path class="e" d="m670.6 324.3h-37.2c-1.2 0-2.1-0.9-2.1-2.1 0-1.1 0.9-2.1 2.1-2.1h37.2c1.1 0 2.1 1 2.1 2.1 0 1.2-1 2.1-2.1 2.1z"/><path class="e" d="m644.5 308.8c-0.7 0-1.4-0.5-1.8-1.1-0.4-0.7-0.4-1.5 0-2.2l8.1-13c0.7-1 2-1.3 2.9-0.7 1 0.6 1.3 1.9 0.7 2.9l-6.1 9.8 10-0.1q0 0 0 0c1.2 0 2.1 1 2.1 2.1 0 1.2-0.9 2.1-2 2.1l-13.9 0.2q0 0 0 0z"/><path class="e" d="m659.4 314.9c-1.1 0-2.1-1-2.1-2.1v-12.2c0-1.2 1-2.1 2.1-2.1 1.2 0 2.1 0.9 2.1 2.1v12.2c0 1.1-0.9 2.1-2.1 2.1z"/><path class="e" d="m652.8 352.9q-0.4 0-0.8 0c-4.8 0-7.7-1.5-8.7-4.3-0.4-1.1 0.2-2.3 1.3-2.7 1.1-0.4 2.3 0.2 2.7 1.3 0.4 1.3 3.2 1.5 4.8 1.5 1.8 0.1 3.7 0.1 5.1-0.6 1.1-0.5 2-1.7 1.8-2.6-0.2-0.7-1-1.3-1.9-1.6-1.2-0.3-2.7-0.2-4.1-0.1-1 0-1.9-0.6-2.2-1.6-0.2-1 0.3-2 1.2-2.4 1.6-0.8 3.2-1.6 4.3-2.8 0.8-1 1-2.3 0.5-3-0.4-0.7-1.5-1-2.7-0.8-1.3 0.3-2.7 1.1-4 2-1 0.6-2.3 0.3-2.9-0.7-0.6-1-0.3-2.3 0.6-2.9 1.6-1 3.4-2.1 5.6-2.5 2.8-0.5 5.5 0.5 6.9 2.5 1.6 2.3 1.2 5.6-0.8 8.1q-0.2 0.2-0.4 0.5c2 0.8 3.5 2.4 3.9 4.3 0.8 3.2-1.4 6.1-3.9 7.4-2.1 0.9-4.4 1-6.3 1z"/><path class="e" d="m556.6 322.9q-0.4 0-0.7-0.1c-7.1-2.4-13.5-6.6-18.6-12.1-0.8-0.9-0.7-2.2 0.2-3 0.8-0.8 2.2-0.7 2.9 0.1 4.6 5.1 10.4 8.8 16.8 11 1.1 0.3 1.7 1.5 1.4 2.6-0.3 0.9-1.2 1.5-2 1.5z"/><path class="e" d="m538.8 328.6q-0.6 0-1.2-0.4c-1-0.6-1.2-1.9-0.6-2.9l13.1-19.3c0.7-0.9 2-1.2 2.9-0.5 1 0.6 1.2 1.9 0.6 2.9l-13.1 19.3c-0.4 0.6-1 0.9-1.7 0.9z"/></svg>